<svg viewBox="-6 0 477 477.55541" xmlns="http://www.w3.org/2000/svg" xmlns:xlink="http://www.w3.org/1999/xlink" width="48" height="48"><linearGradient id="a"><stop offset="0" stop-color="#b56dfd"></stop><stop offset=".327" stop-color="#ca85fa"></stop><stop offset="1" stop-color="#fdc1f4"></stop></linearGradient><linearGradient id="b" gradientUnits="userSpaceOnUse" x1="-15.722295" x2="480.861705" xlink:href="#a" y1="405.555204" y2="405.555204"></linearGradient><linearGradient id="c" gradientUnits="userSpaceOnUse" x1="-15.722295" x2="480.861705" xlink:href="#a" y1="101.555204" y2="101.555204"></linearGradient><linearGradient id="d" gradientUnits="userSpaceOnUse" x1="-15.722295" x2="480.861705" xlink:href="#a" y1="325.507204" y2="325.507204"></linearGradient><linearGradient id="e" gradientUnits="userSpaceOnUse" x1="-15.722295" x2="480.861705" xlink:href="#a" y1="197.555204" y2="197.555204"></linearGradient><linearGradient id="f" gradientUnits="userSpaceOnUse" x1="-15.722295" x2="480.861705" xlink:href="#a" y1="238.779204" y2="238.779204"></linearGradient><g fill="url(#b)"><path d="m144.277344 397.554688h32v16h-32zm0 0"></path><path d="m192.277344 397.554688h32v16h-32zm0 0"></path><path d="m240.277344 397.554688h32v16h-32zm0 0"></path><path d="m288.277344 397.554688h32v16h-32zm0 0"></path></g><path d="m240.277344 109.554688h16c4.417968 0 8-3.582032 8-8 0-4.417969-3.582032-8-8-8h-16c-4.417969 0-8 3.582031-8 8 0 4.417968 3.582031 8 8 8zm0 0" fill="url(#c)"></path><path d="m184.910156 341.027344c9.527344 24.011718 32.570313 39.929687 58.398438 40.34375 5.5.023437 10.96875-.84375 16.191406-2.566406l32-13.914063c.796875-.445313 1.550781-.960937 2.257812-1.535156.078126-.089844.191407-.136719.273438-.222657.550781-.5625 1.019531-1.207031 1.382812-1.90625.039063-.070312 0-.152343.0625-.222656.359376-.953125.625-1.941406.800782-2.945312-.035156-1.011719-.164063-2.019532-.382813-3.007813v-.105469l-16.199219-47.046874c-11.839843-29.398438-44.25-44.800782-74.523437-35.40625l-32 13.710937c-3.886719 1.671875-5.800781 6.082031-4.367187 10.0625zm25.878906-53.601563c21.851563-6 44.789063 5.007813 53.777344 25.808594l9.648438 28-46.265625-23.917969c-2.546875-1.410156-5.660157-1.324218-8.125.226563-2.464844 1.546875-3.894531 4.3125-3.730469 7.21875.160156 2.90625 1.890625 5.496093 4.511719 6.761719l49.0625 25.375-15.910157 6.9375c-21.832031 7.261718-46.871093-9.273438-53.808593-28.304688l-13.597657-37.640625zm0 0" fill="url(#d)"></path><path d="m384.277344 173.554688h24c4.417968 0 8 3.582031 8 8v48c0 4.417968 3.582031 8 8 8 4.417968 0 8-3.582032 8-8v-48c0-13.253907-10.746094-24-24-24h-24c-4.417969 0-8 3.582031-8 8 0 4.417968 3.582031 8 8 8zm0 0" fill="url(#e)"></path><path d="m464.277344 445.554688v-288c0-17.671876-14.328125-32-32-32h-120v-48c0-8.835938-7.164063-16-16-16v-35.160157c.113281-7.996093-3.296875-15.640625-9.328125-20.894531-4.996094-4.367188-11.683594-6.277344-18.230469-5.207031l-19.632812 3.199219c-11.125 1.820312-22.472657 1.820312-33.601563 0l-19.628906-3.199219c-6.550781-1.070313-13.238281.835937-18.234375 5.207031-6.035156 5.25-9.453125 12.894531-9.34375 20.894531v35.160157c-8.835938 0-16 7.164062-16 16v48h-120c-17.671875 0-32 14.328124-32 32v289.90625c.105468 16.695312 13.703125 30.15625 30.398437 30.09375h403.203125c16.695313.0625 30.292969-13.398438 30.398438-30.09375zm-16-288v149.367187c-4.566406-5.75-9.957032-10.792969-16-14.964844v-30.402343c0-4.417969-3.582032-8-8-8-4.417969 0-8 3.582031-8 8v21.960937c-6.339844-2.417969-12.976563-3.980469-19.726563-4.648437l-28.273437-2.792969v-46.519531c0-4.417969-3.582032-8-8-8h-104v-80h176c8.835937 0 16 7.164062 16 16zm-224-16h16v80h-16zm128 96v192h-240v-192zm-168-211.160157c-.085938-3.296875 1.257812-6.46875 3.679687-8.703125 1.441407-1.289062 3.375-1.875 5.289063-1.601562l19.640625 3.203125c12.84375 2.109375 25.945312 2.109375 38.789062 0l19.632813-3.203125c1.914062-.273438 3.847656.3125 5.289062 1.601562 2.421875 2.234375 3.765625 5.40625 3.679688 8.703125v35.160157h-16v-16c0-4.417969-3.582032-8-8-8-4.417969 0-8 3.582031-8 8v16h-64zm-16 83.160157h48c4.417968 0 8-3.582032 8-8 0-4.417969-3.582032-8-8-8h-48v-16h128v16h-16c-4.417969 0-8 3.582031-8 8 0 4.417968 3.582031 8 8 8h16v16h-128zm-152 48c0-8.835938 7.164062-16 16-16h176v80h-104c-4.417969 0-8 3.582031-8 8v19.6875l-37.960938-3.742188c-14.925781-1.472656-29.78125 3.414062-40.917968 13.464844-.402344.359375-.738282.757812-1.121094 1.125zm0 288v-148.121094c-.035156-10.15625 4.28125-19.84375 11.855468-26.613282 7.796876-7.015624 18.179688-10.425781 28.617188-9.402343l39.527344 3.90625v196.230469h-64c-8.835938 0-16-7.164063-16-16zm96 16v-16h240v16zm256 0v-169.40625l26.703125 2.640624c30.070312 2.660157 53.167969 27.78125 53.296875 57.964844v92.800782c0 8.835937-7.164063 16-16 16zm0 0" fill="url(#f)"></path></svg>